<svg xmlns="http://www.w3.org/2000/svg" xmlns:xlink="http://www.w3.org/1999/xlink" width="1500" zoomAndPan="magnify" viewBox="0 0 375 374.999991" height="1500" preserveAspectRatio="xMidYMid meet" version="1.0"><defs><g/><clipPath id="b0d9297655"><path d="M 29.023438 134.363281 L 101.773438 134.363281 L 101.773438 207.105469 L 29.023438 207.105469 Z M 29.023438 134.363281 " clip-rule="nonzero"/></clipPath></defs><g clip-path="url(#b0d9297655)"><path fill="#ed1c24" d="M 39.675781 145.007812 C 46.351562 138.332031 55.160156 134.574219 64.566406 134.363281 C 55.96875 134.574219 47.917969 138.019531 41.8125 144.121094 C 35.515625 150.417969 32.046875 158.792969 32.042969 167.699219 C 32.042969 176.042969 35.183594 184.132812 40.835938 190.273438 C 41.726562 191.242188 42.664062 192.152344 43.648438 192.996094 C 37.195312 186.316406 35.613281 178.695312 35.613281 178.695312 C 30.09375 154.261719 51.757812 144.074219 51.757812 144.074219 C 35.886719 155.109375 39.972656 171.046875 39.972656 171.046875 C 40.925781 164.917969 42.96875 159.332031 42.96875 159.332031 C 42.96875 159.332031 40.652344 180.585938 52.234375 186.445312 C 58.226562 189.476562 60.078125 193.511719 60.46875 196.699219 C 60.773438 199.167969 62.855469 201.058594 65.347656 201.0625 C 65.363281 201.0625 65.382812 201.0625 65.398438 201.0625 C 65.417969 201.0625 65.433594 201.0625 65.449219 201.0625 C 67.941406 201.058594 70.023438 199.167969 70.328125 196.699219 C 70.71875 193.511719 72.570312 189.476562 78.5625 186.445312 C 90.144531 180.585938 87.828125 159.332031 87.828125 159.332031 C 87.828125 159.332031 89.871094 164.917969 90.824219 171.046875 C 90.824219 171.046875 94.914062 155.109375 79.039062 144.074219 C 79.039062 144.074219 100.703125 154.261719 95.183594 178.695312 C 95.183594 178.695312 93.601562 186.3125 87.152344 192.996094 C 87.78125 192.453125 88.390625 191.886719 88.984375 191.292969 C 95.285156 184.996094 98.753906 176.617188 98.753906 167.707031 C 98.753906 158.796875 95.285156 150.421875 88.984375 144.121094 C 82.882812 138.019531 74.828125 134.574219 66.234375 134.363281 C 75.636719 134.574219 84.445312 138.332031 91.121094 145.007812 C 97.992188 151.878906 101.773438 161.011719 101.773438 170.730469 C 101.773438 180.445312 97.992188 189.582031 91.121094 196.449219 C 84.25 203.320312 75.117188 207.105469 65.398438 207.105469 C 55.683594 207.105469 46.546875 203.320312 39.675781 196.449219 C 32.804688 189.582031 29.023438 180.445312 29.023438 170.730469 C 29.023438 161.011719 32.804688 151.878906 39.675781 145.007812 " fill-opacity="1" fill-rule="nonzero"/></g><path fill="#ed1c24" d="M 58.828125 141.28125 C 58.8125 141.167969 58.792969 141.054688 58.773438 140.941406 C 58.773438 140.941406 58.820312 141.046875 58.828125 141.28125 " fill-opacity="1" fill-rule="nonzero"/><path fill="#ed1c24" d="M 71.96875 141.28125 C 71.976562 141.046875 72.023438 140.941406 72.023438 140.941406 C 72.003906 141.054688 71.988281 141.167969 71.96875 141.28125 " fill-opacity="1" fill-rule="nonzero"/><path fill="#ed1c24" d="M 61.777344 167.46875 C 62.824219 167.230469 63.65625 167.699219 66.359375 169.757812 C 69.574219 172.207031 72.148438 170.035156 72.148438 170.035156 C 70.4375 172.765625 67.375 172.082031 67.375 172.082031 C 68.0625 173.132812 70.398438 172.605469 70.398438 172.605469 C 68.949219 173.925781 67.230469 173.675781 67.230469 173.675781 C 68.609375 175.941406 69.199219 178.3125 69.367188 180.503906 C 70.074219 179.6875 70.90625 178.847656 71.886719 177.996094 C 78.972656 171.867188 74.613281 154.5625 74.613281 154.5625 C 74.613281 154.5625 80.335938 162.328125 79.652344 167.097656 C 79.652344 167.097656 84.421875 160.96875 78.835938 154.429688 C 73.371094 148.027344 71.167969 146.453125 71.96875 141.28125 C 71.933594 142.289062 72.621094 145.6875 80.878906 153.335938 C 91.050781 162.761719 82.378906 180.175781 74.066406 184.945312 C 65.757812 189.714844 65.398438 200.886719 65.398438 200.886719 C 65.398438 200.886719 65.042969 189.714844 56.730469 184.945312 C 48.417969 180.175781 39.746094 162.761719 49.917969 153.335938 C 58.175781 145.6875 58.863281 142.289062 58.828125 141.28125 C 59.632812 146.453125 57.429688 148.027344 51.960938 154.429688 C 46.375 160.96875 51.144531 167.097656 51.144531 167.097656 C 50.464844 162.328125 56.183594 154.5625 56.183594 154.5625 C 56.183594 154.5625 51.824219 171.867188 58.910156 177.996094 C 59.785156 178.753906 60.542969 179.503906 61.199219 180.238281 C 65.425781 169.246094 57.238281 168.097656 57.238281 168.097656 C 58.648438 167.488281 59.679688 167.417969 60.328125 167.480469 C 60.796875 167.527344 61.230469 167.738281 61.566406 168.070312 C 62.609375 169.105469 65.191406 172.097656 64.863281 176.226562 C 64.863281 176.226562 65.464844 171.863281 61.777344 167.46875 " fill-opacity="1" fill-rule="nonzero"/><g fill="#231438" fill-opacity="1"><g transform="translate(101.611447, 192.782909)"><g><path d="M 14.203125 0 L 5.625 0 L 5.625 -43.328125 L 14.203125 -43.328125 Z M 14.203125 0 "/></g></g><g transform="translate(121.469781, 192.782909)"><g><path d="M 4.71875 0 L 4.71875 -32.6875 L 12.59375 -32.6875 L 12.59375 -27.890625 L 13.21875 -27.75 C 15.25 -31.457031 18.550781 -33.3125 23.125 -33.3125 C 26.894531 -33.3125 29.664062 -32.285156 31.4375 -30.234375 C 33.207031 -28.179688 34.09375 -25.1875 34.09375 -21.25 L 34.09375 0 L 25.875 0 L 25.875 -20.25 C 25.875 -22.414062 25.4375 -23.976562 24.5625 -24.9375 C 23.695312 -25.894531 22.304688 -26.375 20.390625 -26.375 C 18.035156 -26.375 16.203125 -25.613281 14.890625 -24.09375 C 13.578125 -22.570312 12.921875 -20.179688 12.921875 -16.921875 L 12.921875 0 Z M 4.71875 0 "/></g></g><g transform="translate(159.763762, 192.782909)"><g><path d="M 5.71875 0 L 5.71875 -26.203125 L 1.09375 -26.203125 L 1.09375 -32.71875 L 5.71875 -32.71875 C 5.382812 -34.101562 5.21875 -35.398438 5.21875 -36.609375 C 5.21875 -38.679688 5.691406 -40.453125 6.640625 -41.921875 C 7.585938 -43.398438 8.945312 -44.523438 10.71875 -45.296875 C 12.5 -46.066406 14.617188 -46.453125 17.078125 -46.453125 C 20.691406 -46.453125 23.390625 -45.828125 25.171875 -44.578125 L 23.234375 -38.53125 L 22.609375 -38.40625 C 21.390625 -39.28125 19.820312 -39.71875 17.90625 -39.71875 C 16.414062 -39.71875 15.300781 -39.351562 14.5625 -38.625 C 13.820312 -37.90625 13.453125 -36.925781 13.453125 -35.6875 C 13.453125 -35.15625 13.488281 -34.664062 13.5625 -34.21875 C 13.632812 -33.769531 13.757812 -33.269531 13.9375 -32.71875 L 23.265625 -32.71875 L 23.265625 -26.203125 L 13.9375 -26.203125 L 13.9375 0 Z M 5.71875 0 "/></g></g><g transform="translate(183.356648, 192.782909)"><g><path d="M 32.3125 -14.5 L 11.296875 -14.5 C 11.535156 -11.644531 12.34375 -9.570312 13.71875 -8.28125 C 15.101562 -6.988281 16.992188 -6.34375 19.390625 -6.34375 C 21.265625 -6.34375 22.785156 -6.691406 23.953125 -7.390625 C 25.117188 -8.097656 26.054688 -9.160156 26.765625 -10.578125 L 27.390625 -10.578125 L 32.84375 -7.078125 C 31.769531 -4.785156 30.15625 -2.925781 28 -1.5 C 25.851562 -0.0820312 22.984375 0.625 19.390625 0.625 C 16.003906 0.625 13.082031 -0.015625 10.625 -1.296875 C 8.164062 -2.585938 6.269531 -4.5 4.9375 -7.03125 C 3.601562 -9.570312 2.9375 -12.671875 2.9375 -16.328125 C 2.9375 -20.046875 3.632812 -23.175781 5.03125 -25.71875 C 6.4375 -28.269531 8.332031 -30.171875 10.71875 -31.421875 C 13.113281 -32.679688 15.804688 -33.3125 18.796875 -33.3125 C 23.421875 -33.3125 26.960938 -32.085938 29.421875 -29.640625 C 31.878906 -27.191406 33.109375 -23.59375 33.109375 -18.84375 C 33.109375 -17.125 33.050781 -15.789062 32.9375 -14.84375 Z M 25.25 -19.796875 C 25.175781 -22.285156 24.597656 -24.097656 23.515625 -25.234375 C 22.441406 -26.367188 20.867188 -26.9375 18.796875 -26.9375 C 14.640625 -26.9375 12.195312 -24.554688 11.46875 -19.796875 Z M 25.25 -19.796875 "/></g></g><g transform="translate(218.894173, 192.782909)"><g><path d="M 4.71875 0 L 4.71875 -32.6875 L 12.6875 -32.6875 L 12.6875 -27.828125 L 13.3125 -27.71875 C 14.101562 -29.53125 15.140625 -30.859375 16.421875 -31.703125 C 17.703125 -32.554688 19.265625 -32.984375 21.109375 -32.984375 C 22.960938 -32.984375 24.375 -32.671875 25.34375 -32.046875 L 23.953125 -24.953125 L 23.328125 -24.84375 C 22.796875 -25.0625 22.28125 -25.21875 21.78125 -25.3125 C 21.289062 -25.40625 20.691406 -25.453125 19.984375 -25.453125 C 17.691406 -25.453125 15.941406 -24.644531 14.734375 -23.03125 C 13.523438 -21.425781 12.921875 -18.847656 12.921875 -15.296875 L 12.921875 0 Z M 4.71875 0 "/></g></g><g transform="translate(244.532171, 192.782909)"><g><path d="M 4.71875 0 L 4.71875 -32.6875 L 12.59375 -32.6875 L 12.59375 -27.890625 L 13.21875 -27.75 C 15.25 -31.457031 18.550781 -33.3125 23.125 -33.3125 C 26.894531 -33.3125 29.664062 -32.285156 31.4375 -30.234375 C 33.207031 -28.179688 34.09375 -25.1875 34.09375 -21.25 L 34.09375 0 L 25.875 0 L 25.875 -20.25 C 25.875 -22.414062 25.4375 -23.976562 24.5625 -24.9375 C 23.695312 -25.894531 22.304688 -26.375 20.390625 -26.375 C 18.035156 -26.375 16.203125 -25.613281 14.890625 -24.09375 C 13.578125 -22.570312 12.921875 -20.179688 12.921875 -16.921875 L 12.921875 0 Z M 4.71875 0 "/></g></g><g transform="translate(282.826152, 192.782909)"><g><path d="M 8.796875 -36.609375 C 7.316406 -36.609375 6.113281 -37.054688 5.1875 -37.953125 C 4.257812 -38.847656 3.796875 -40.007812 3.796875 -41.4375 C 3.796875 -42.84375 4.257812 -43.992188 5.1875 -44.890625 C 6.113281 -45.785156 7.316406 -46.234375 8.796875 -46.234375 C 9.785156 -46.234375 10.664062 -46.023438 11.4375 -45.609375 C 12.207031 -45.203125 12.804688 -44.632812 13.234375 -43.90625 C 13.660156 -43.1875 13.875 -42.363281 13.875 -41.4375 C 13.875 -40.507812 13.660156 -39.675781 13.234375 -38.9375 C 12.804688 -38.207031 12.207031 -37.632812 11.4375 -37.21875 C 10.664062 -36.8125 9.785156 -36.609375 8.796875 -36.609375 Z M 4.71875 0 L 4.71875 -32.6875 L 12.921875 -32.6875 L 12.921875 0 Z M 4.71875 0 "/></g></g><g transform="translate(300.431898, 192.782909)"><g><path d="M 9.21875 0 L 0.5625 0 L 9.90625 -16.953125 L 1.0625 -32.6875 L 9.84375 -32.6875 L 15.5 -21.9375 L 16.1875 -21.9375 L 21.875 -32.6875 L 30.375 -32.6875 L 21.8125 -16.953125 L 30.890625 0 L 22.140625 0 L 15.96875 -11.9375 L 15.296875 -11.9375 Z M 9.21875 0 "/></g></g></g><g fill="#231438" fill-opacity="1"><g transform="translate(101.658322, 210.696548)"><g><path d="M 4.125 0.109375 C 3.46875 0.109375 2.890625 -0.0390625 2.390625 -0.34375 C 1.890625 -0.644531 1.492188 -1.097656 1.203125 -1.703125 C 0.921875 -2.304688 0.78125 -3.046875 0.78125 -3.921875 C 0.78125 -4.804688 0.929688 -5.550781 1.234375 -6.15625 C 1.535156 -6.757812 1.953125 -7.210938 2.484375 -7.515625 C 3.023438 -7.816406 3.648438 -7.96875 4.359375 -7.96875 C 5.109375 -7.96875 5.722656 -7.832031 6.203125 -7.5625 C 6.691406 -7.289062 7.035156 -6.882812 7.234375 -6.34375 L 6.640625 -6 L 6.5 -6 C 6.289062 -6.40625 6.015625 -6.695312 5.671875 -6.875 C 5.328125 -7.050781 4.890625 -7.140625 4.359375 -7.140625 C 2.628906 -7.140625 1.765625 -6.066406 1.765625 -3.921875 C 1.765625 -2.804688 1.984375 -1.992188 2.421875 -1.484375 C 2.859375 -0.972656 3.46875 -0.71875 4.25 -0.71875 C 4.957031 -0.71875 5.488281 -0.878906 5.84375 -1.203125 C 6.207031 -1.535156 6.390625 -2.050781 6.390625 -2.75 L 6.390625 -3.4375 L 4.15625 -3.4375 L 4.15625 -4.1875 L 7.28125 -4.1875 L 7.28125 0 L 6.421875 0 L 6.421875 -1.046875 L 6.3125 -1.078125 C 6.101562 -0.671875 5.8125 -0.367188 5.4375 -0.171875 C 5.070312 0.015625 4.632812 0.109375 4.125 0.109375 Z M 4.125 0.109375 "/></g></g></g><g fill="#231438" fill-opacity="1"><g transform="translate(109.816586, 210.696548)"><g><path d="M 5.640625 -2.765625 L 1.578125 -2.765625 C 1.597656 -2.046875 1.769531 -1.515625 2.09375 -1.171875 C 2.414062 -0.835938 2.851562 -0.671875 3.40625 -0.671875 C 3.832031 -0.671875 4.171875 -0.742188 4.421875 -0.890625 C 4.679688 -1.046875 4.882812 -1.285156 5.03125 -1.609375 L 5.15625 -1.609375 L 5.71875 -1.265625 C 5.550781 -0.835938 5.273438 -0.5 4.890625 -0.25 C 4.515625 -0.0078125 4.019531 0.109375 3.40625 0.109375 C 2.832031 0.109375 2.335938 0 1.921875 -0.21875 C 1.515625 -0.445312 1.203125 -0.789062 0.984375 -1.25 C 0.765625 -1.707031 0.65625 -2.273438 0.65625 -2.953125 C 0.65625 -3.628906 0.769531 -4.195312 1 -4.65625 C 1.238281 -5.125 1.5625 -5.46875 1.96875 -5.6875 C 2.375 -5.914062 2.835938 -6.03125 3.359375 -6.03125 C 4.117188 -6.03125 4.710938 -5.816406 5.140625 -5.390625 C 5.566406 -4.960938 5.78125 -4.328125 5.78125 -3.484375 C 5.78125 -3.160156 5.773438 -2.941406 5.765625 -2.828125 Z M 4.921875 -3.484375 C 4.898438 -4.117188 4.753906 -4.578125 4.484375 -4.859375 C 4.222656 -5.148438 3.847656 -5.296875 3.359375 -5.296875 C 2.835938 -5.296875 2.425781 -5.148438 2.125 -4.859375 C 1.832031 -4.578125 1.65625 -4.117188 1.59375 -3.484375 Z M 4.921875 -3.484375 "/></g></g></g><g fill="#231438" fill-opacity="1"><g transform="translate(116.128506, 210.696548)"><g><path d="M 1.03125 0 L 1.03125 -5.921875 L 1.859375 -5.921875 L 1.859375 -5 L 1.984375 -4.96875 C 2.171875 -5.3125 2.414062 -5.570312 2.71875 -5.75 C 3.03125 -5.9375 3.40625 -6.03125 3.84375 -6.03125 C 4.5625 -6.03125 5.078125 -5.847656 5.390625 -5.484375 C 5.710938 -5.128906 5.875 -4.570312 5.875 -3.8125 L 5.875 0 L 5 0 L 5 -3.796875 C 5 -4.148438 4.953125 -4.4375 4.859375 -4.65625 C 4.773438 -4.875 4.632812 -5.03125 4.4375 -5.125 C 4.25 -5.226562 4 -5.28125 3.6875 -5.28125 C 3.15625 -5.28125 2.722656 -5.101562 2.390625 -4.75 C 2.066406 -4.394531 1.90625 -3.828125 1.90625 -3.046875 L 1.90625 0 Z M 1.03125 0 "/></g></g></g><g fill="#231438" fill-opacity="1"><g transform="translate(122.94495, 210.696548)"><g><path d="M 5.640625 -2.765625 L 1.578125 -2.765625 C 1.597656 -2.046875 1.769531 -1.515625 2.09375 -1.171875 C 2.414062 -0.835938 2.851562 -0.671875 3.40625 -0.671875 C 3.832031 -0.671875 4.171875 -0.742188 4.421875 -0.890625 C 4.679688 -1.046875 4.882812 -1.285156 5.03125 -1.609375 L 5.15625 -1.609375 L 5.71875 -1.265625 C 5.550781 -0.835938 5.273438 -0.5 4.890625 -0.25 C 4.515625 -0.0078125 4.019531 0.109375 3.40625 0.109375 C 2.832031 0.109375 2.335938 0 1.921875 -0.21875 C 1.515625 -0.445312 1.203125 -0.789062 0.984375 -1.25 C 0.765625 -1.707031 0.65625 -2.273438 0.65625 -2.953125 C 0.65625 -3.628906 0.769531 -4.195312 1 -4.65625 C 1.238281 -5.125 1.5625 -5.46875 1.96875 -5.6875 C 2.375 -5.914062 2.835938 -6.03125 3.359375 -6.03125 C 4.117188 -6.03125 4.710938 -5.816406 5.140625 -5.390625 C 5.566406 -4.960938 5.78125 -4.328125 5.78125 -3.484375 C 5.78125 -3.160156 5.773438 -2.941406 5.765625 -2.828125 Z M 4.921875 -3.484375 C 4.898438 -4.117188 4.753906 -4.578125 4.484375 -4.859375 C 4.222656 -5.148438 3.847656 -5.296875 3.359375 -5.296875 C 2.835938 -5.296875 2.425781 -5.148438 2.125 -4.859375 C 1.832031 -4.578125 1.65625 -4.117188 1.59375 -3.484375 Z M 4.921875 -3.484375 "/></g></g></g><g fill="#231438" fill-opacity="1"><g transform="translate(129.25687, 210.696548)"><g><path d="M 1.03125 0 L 1.03125 -5.921875 L 1.859375 -5.921875 L 1.859375 -5 L 1.984375 -4.96875 C 2.253906 -5.644531 2.769531 -5.984375 3.53125 -5.984375 C 3.9375 -5.984375 4.238281 -5.910156 4.4375 -5.765625 L 4.21875 -5.015625 L 4.109375 -5 C 3.890625 -5.101562 3.644531 -5.15625 3.375 -5.15625 C 2.90625 -5.15625 2.539062 -4.976562 2.28125 -4.625 C 2.03125 -4.269531 1.90625 -3.695312 1.90625 -2.90625 L 1.90625 0 Z M 1.03125 0 "/></g></g></g><g fill="#231438" fill-opacity="1"><g transform="translate(133.829791, 210.696548)"><g><path d="M 2.4375 0.109375 C 1.851562 0.109375 1.394531 -0.0390625 1.0625 -0.34375 C 0.738281 -0.644531 0.578125 -1.082031 0.578125 -1.65625 C 0.578125 -2 0.648438 -2.289062 0.796875 -2.53125 C 0.941406 -2.78125 1.164062 -2.976562 1.46875 -3.125 C 1.78125 -3.28125 2.179688 -3.398438 2.671875 -3.484375 C 3.097656 -3.554688 3.421875 -3.632812 3.640625 -3.71875 C 3.867188 -3.8125 4.019531 -3.910156 4.09375 -4.015625 C 4.175781 -4.128906 4.21875 -4.269531 4.21875 -4.4375 C 4.21875 -4.707031 4.125 -4.914062 3.9375 -5.0625 C 3.75 -5.207031 3.453125 -5.28125 3.046875 -5.28125 C 2.660156 -5.28125 2.332031 -5.203125 2.0625 -5.046875 C 1.789062 -4.898438 1.539062 -4.679688 1.3125 -4.390625 L 1.203125 -4.390625 L 0.78125 -5 C 1.03125 -5.3125 1.347656 -5.5625 1.734375 -5.75 C 2.117188 -5.9375 2.554688 -6.03125 3.046875 -6.03125 C 3.742188 -6.03125 4.257812 -5.878906 4.59375 -5.578125 C 4.925781 -5.273438 5.09375 -4.851562 5.09375 -4.3125 L 5.09375 -1.171875 C 5.09375 -0.835938 5.234375 -0.671875 5.515625 -0.671875 C 5.609375 -0.671875 5.695312 -0.6875 5.78125 -0.71875 L 5.859375 -0.703125 L 5.953125 -0.09375 C 5.890625 -0.0507812 5.804688 -0.0195312 5.703125 0 C 5.597656 0.03125 5.488281 0.046875 5.375 0.046875 C 5.050781 0.046875 4.804688 -0.0234375 4.640625 -0.171875 C 4.472656 -0.316406 4.363281 -0.53125 4.3125 -0.8125 L 4.203125 -0.8125 C 4.035156 -0.5 3.804688 -0.265625 3.515625 -0.109375 C 3.234375 0.0351562 2.875 0.109375 2.4375 0.109375 Z M 2.640625 -0.578125 C 2.960938 -0.578125 3.242188 -0.65625 3.484375 -0.8125 C 3.734375 -0.96875 3.921875 -1.179688 4.046875 -1.453125 C 4.179688 -1.734375 4.25 -2.050781 4.25 -2.40625 L 4.25 -3.15625 L 4.140625 -3.1875 C 4.003906 -3.09375 3.84375 -3.015625 3.65625 -2.953125 C 3.46875 -2.890625 3.203125 -2.832031 2.859375 -2.78125 C 2.515625 -2.738281 2.238281 -2.664062 2.03125 -2.5625 C 1.832031 -2.46875 1.691406 -2.347656 1.609375 -2.203125 C 1.523438 -2.054688 1.484375 -1.875 1.484375 -1.65625 C 1.484375 -1.300781 1.582031 -1.03125 1.78125 -0.84375 C 1.988281 -0.664062 2.273438 -0.578125 2.640625 -0.578125 Z M 2.640625 -0.578125 "/></g></g></g><g fill="#231438" fill-opacity="1"><g transform="translate(139.953856, 210.696548)"><g><path d="M 4 -0.9375 L 4.28125 -0.3125 C 4.144531 -0.175781 3.960938 -0.0703125 3.734375 0 C 3.503906 0.0703125 3.257812 0.109375 3 0.109375 C 1.863281 0.109375 1.296875 -0.460938 1.296875 -1.609375 L 1.296875 -5.203125 L 0.265625 -5.203125 L 0.265625 -5.9375 L 1.296875 -5.9375 L 1.296875 -7.1875 L 2.171875 -7.328125 L 2.171875 -5.9375 L 4.078125 -5.9375 L 4.078125 -5.203125 L 2.171875 -5.203125 L 2.171875 -1.6875 C 2.171875 -1.007812 2.46875 -0.671875 3.0625 -0.671875 C 3.382812 -0.671875 3.660156 -0.757812 3.890625 -0.9375 Z M 4 -0.9375 "/></g></g></g><g fill="#231438" fill-opacity="1"><g transform="translate(144.46237, 210.696548)"><g><path d="M 1.46875 -7.0625 C 1.28125 -7.0625 1.128906 -7.117188 1.015625 -7.234375 C 0.898438 -7.359375 0.84375 -7.507812 0.84375 -7.6875 C 0.84375 -7.863281 0.898438 -8.007812 1.015625 -8.125 C 1.128906 -8.238281 1.28125 -8.296875 1.46875 -8.296875 C 1.65625 -8.296875 1.804688 -8.238281 1.921875 -8.125 C 2.035156 -8.007812 2.09375 -7.863281 2.09375 -7.6875 C 2.09375 -7.507812 2.035156 -7.359375 1.921875 -7.234375 C 1.804688 -7.117188 1.65625 -7.0625 1.46875 -7.0625 Z M 1.03125 0 L 1.03125 -5.921875 L 1.90625 -5.921875 L 1.90625 0 Z M 1.03125 0 "/></g></g></g><g fill="#231438" fill-opacity="1"><g transform="translate(147.398271, 210.696548)"><g><path d="M 3.75 0 L 2.546875 0 L 0.296875 -5.921875 L 1.234375 -5.921875 L 3.09375 -1 L 3.21875 -1 L 5.078125 -5.921875 L 6 -5.921875 Z M 3.75 0 "/></g></g></g><g fill="#231438" fill-opacity="1"><g transform="translate(153.67262, 210.696548)"><g><path d="M 5.640625 -2.765625 L 1.578125 -2.765625 C 1.597656 -2.046875 1.769531 -1.515625 2.09375 -1.171875 C 2.414062 -0.835938 2.851562 -0.671875 3.40625 -0.671875 C 3.832031 -0.671875 4.171875 -0.742188 4.421875 -0.890625 C 4.679688 -1.046875 4.882812 -1.285156 5.03125 -1.609375 L 5.15625 -1.609375 L 5.71875 -1.265625 C 5.550781 -0.835938 5.273438 -0.5 4.890625 -0.25 C 4.515625 -0.0078125 4.019531 0.109375 3.40625 0.109375 C 2.832031 0.109375 2.335938 0 1.921875 -0.21875 C 1.515625 -0.445312 1.203125 -0.789062 0.984375 -1.25 C 0.765625 -1.707031 0.65625 -2.273438 0.65625 -2.953125 C 0.65625 -3.628906 0.769531 -4.195312 1 -4.65625 C 1.238281 -5.125 1.5625 -5.46875 1.96875 -5.6875 C 2.375 -5.914062 2.835938 -6.03125 3.359375 -6.03125 C 4.117188 -6.03125 4.710938 -5.816406 5.140625 -5.390625 C 5.566406 -4.960938 5.78125 -4.328125 5.78125 -3.484375 C 5.78125 -3.160156 5.773438 -2.941406 5.765625 -2.828125 Z M 4.921875 -3.484375 C 4.898438 -4.117188 4.753906 -4.578125 4.484375 -4.859375 C 4.222656 -5.148438 3.847656 -5.296875 3.359375 -5.296875 C 2.835938 -5.296875 2.425781 -5.148438 2.125 -4.859375 C 1.832031 -4.578125 1.65625 -4.117188 1.59375 -3.484375 Z M 4.921875 -3.484375 "/></g></g></g><g fill="#231438" fill-opacity="1"><g transform="translate(159.98454, 210.696548)"><g/></g></g><g fill="#231438" fill-opacity="1"><g transform="translate(162.678914, 210.696548)"><g><path d="M 7.0625 0 L 6.078125 0 L 5.359375 -2.15625 L 2.015625 -2.15625 L 1.28125 0 L 0.3125 0 L 3.046875 -7.859375 L 4.328125 -7.859375 Z M 3.609375 -6.90625 L 2.265625 -2.921875 L 5.09375 -2.921875 L 3.75 -6.90625 Z M 3.609375 -6.90625 "/></g></g></g><g fill="#231438" fill-opacity="1"><g transform="translate(170.053555, 210.696548)"><g><path d="M 1.46875 -7.0625 C 1.28125 -7.0625 1.128906 -7.117188 1.015625 -7.234375 C 0.898438 -7.359375 0.84375 -7.507812 0.84375 -7.6875 C 0.84375 -7.863281 0.898438 -8.007812 1.015625 -8.125 C 1.128906 -8.238281 1.28125 -8.296875 1.46875 -8.296875 C 1.65625 -8.296875 1.804688 -8.238281 1.921875 -8.125 C 2.035156 -8.007812 2.09375 -7.863281 2.09375 -7.6875 C 2.09375 -7.507812 2.035156 -7.359375 1.921875 -7.234375 C 1.804688 -7.117188 1.65625 -7.0625 1.46875 -7.0625 Z M 1.03125 0 L 1.03125 -5.921875 L 1.90625 -5.921875 L 1.90625 0 Z M 1.03125 0 "/></g></g></g><g fill="#231438" fill-opacity="1"><g transform="translate(172.989456, 210.696548)"><g/></g></g><g fill="#231438" fill-opacity="1"><g transform="translate(175.68383, 210.696548)"><g><path d="M 5.796875 -7.859375 L 5.796875 -7.09375 L 2.109375 -7.09375 L 2.109375 -4.234375 L 5.4375 -4.234375 L 5.4375 -3.46875 L 2.109375 -3.46875 L 2.109375 0 L 1.1875 0 L 1.1875 -7.859375 Z M 5.796875 -7.859375 "/></g></g></g><g fill="#231438" fill-opacity="1"><g transform="translate(181.904506, 210.696548)"><g><path d="M 3.40625 0.109375 C 2.84375 0.109375 2.351562 -0.00390625 1.9375 -0.234375 C 1.53125 -0.472656 1.210938 -0.820312 0.984375 -1.28125 C 0.765625 -1.75 0.65625 -2.304688 0.65625 -2.953125 C 0.65625 -3.609375 0.765625 -4.164062 0.984375 -4.625 C 1.210938 -5.09375 1.53125 -5.441406 1.9375 -5.671875 C 2.351562 -5.910156 2.84375 -6.03125 3.40625 -6.03125 C 3.957031 -6.03125 4.441406 -5.910156 4.859375 -5.671875 C 5.273438 -5.441406 5.59375 -5.09375 5.8125 -4.625 C 6.039062 -4.164062 6.15625 -3.609375 6.15625 -2.953125 C 6.15625 -2.304688 6.039062 -1.75 5.8125 -1.28125 C 5.59375 -0.820312 5.273438 -0.472656 4.859375 -0.234375 C 4.441406 -0.00390625 3.957031 0.109375 3.40625 0.109375 Z M 3.40625 -0.671875 C 3.988281 -0.671875 4.4375 -0.851562 4.75 -1.21875 C 5.0625 -1.59375 5.21875 -2.171875 5.21875 -2.953125 C 5.21875 -3.742188 5.0625 -4.320312 4.75 -4.6875 C 4.4375 -5.0625 3.988281 -5.25 3.40625 -5.25 C 2.8125 -5.25 2.351562 -5.0625 2.03125 -4.6875 C 1.71875 -4.3125 1.5625 -3.734375 1.5625 -2.953125 C 1.5625 -2.171875 1.71875 -1.59375 2.03125 -1.21875 C 2.351562 -0.851562 2.8125 -0.671875 3.40625 -0.671875 Z M 3.40625 -0.671875 "/></g></g></g><g fill="#231438" fill-opacity="1"><g transform="translate(188.699481, 210.696548)"><g><path d="M 1.03125 0 L 1.03125 -5.921875 L 1.859375 -5.921875 L 1.859375 -5 L 1.984375 -4.96875 C 2.253906 -5.644531 2.769531 -5.984375 3.53125 -5.984375 C 3.9375 -5.984375 4.238281 -5.910156 4.4375 -5.765625 L 4.21875 -5.015625 L 4.109375 -5 C 3.890625 -5.101562 3.644531 -5.15625 3.375 -5.15625 C 2.90625 -5.15625 2.539062 -4.976562 2.28125 -4.625 C 2.03125 -4.269531 1.90625 -3.695312 1.90625 -2.90625 L 1.90625 0 Z M 1.03125 0 "/></g></g></g><g fill="#231438" fill-opacity="1"><g transform="translate(193.272403, 210.696548)"><g/></g></g><g fill="#231438" fill-opacity="1"><g transform="translate(195.966776, 210.696548)"><g><path d="M 2.109375 -3.703125 L 2.109375 -0.765625 L 6.109375 -0.765625 L 6.109375 0 L 1.1875 0 L 1.1875 -7.859375 L 6.03125 -7.859375 L 6.03125 -7.09375 L 2.109375 -7.09375 L 2.109375 -4.46875 L 5.5625 -4.46875 L 5.5625 -3.703125 Z M 2.109375 -3.703125 "/></g></g></g><g fill="#231438" fill-opacity="1"><g transform="translate(202.595366, 210.696548)"><g><path d="M 1.03125 0 L 1.03125 -5.921875 L 1.859375 -5.921875 L 1.859375 -5 L 1.984375 -4.96875 C 2.171875 -5.3125 2.414062 -5.570312 2.71875 -5.75 C 3.03125 -5.9375 3.40625 -6.03125 3.84375 -6.03125 C 4.5625 -6.03125 5.078125 -5.847656 5.390625 -5.484375 C 5.710938 -5.128906 5.875 -4.570312 5.875 -3.8125 L 5.875 0 L 5 0 L 5 -3.796875 C 5 -4.148438 4.953125 -4.4375 4.859375 -4.65625 C 4.773438 -4.875 4.632812 -5.03125 4.4375 -5.125 C 4.25 -5.226562 4 -5.28125 3.6875 -5.28125 C 3.15625 -5.28125 2.722656 -5.101562 2.390625 -4.75 C 2.066406 -4.394531 1.90625 -3.828125 1.90625 -3.046875 L 1.90625 0 Z M 1.03125 0 "/></g></g></g><g fill="#231438" fill-opacity="1"><g transform="translate(209.41181, 210.696548)"><g><path d="M 4 -0.9375 L 4.28125 -0.3125 C 4.144531 -0.175781 3.960938 -0.0703125 3.734375 0 C 3.503906 0.0703125 3.257812 0.109375 3 0.109375 C 1.863281 0.109375 1.296875 -0.460938 1.296875 -1.609375 L 1.296875 -5.203125 L 0.265625 -5.203125 L 0.265625 -5.9375 L 1.296875 -5.9375 L 1.296875 -7.1875 L 2.171875 -7.328125 L 2.171875 -5.9375 L 4.078125 -5.9375 L 4.078125 -5.203125 L 2.171875 -5.203125 L 2.171875 -1.6875 C 2.171875 -1.007812 2.46875 -0.671875 3.0625 -0.671875 C 3.382812 -0.671875 3.660156 -0.757812 3.890625 -0.9375 Z M 4 -0.9375 "/></g></g></g><g fill="#231438" fill-opacity="1"><g transform="translate(213.920324, 210.696548)"><g><path d="M 5.640625 -2.765625 L 1.578125 -2.765625 C 1.597656 -2.046875 1.769531 -1.515625 2.09375 -1.171875 C 2.414062 -0.835938 2.851562 -0.671875 3.40625 -0.671875 C 3.832031 -0.671875 4.171875 -0.742188 4.421875 -0.890625 C 4.679688 -1.046875 4.882812 -1.285156 5.03125 -1.609375 L 5.15625 -1.609375 L 5.71875 -1.265625 C 5.550781 -0.835938 5.273438 -0.5 4.890625 -0.25 C 4.515625 -0.0078125 4.019531 0.109375 3.40625 0.109375 C 2.832031 0.109375 2.335938 0 1.921875 -0.21875 C 1.515625 -0.445312 1.203125 -0.789062 0.984375 -1.25 C 0.765625 -1.707031 0.65625 -2.273438 0.65625 -2.953125 C 0.65625 -3.628906 0.769531 -4.195312 1 -4.65625 C 1.238281 -5.125 1.5625 -5.46875 1.96875 -5.6875 C 2.375 -5.914062 2.835938 -6.03125 3.359375 -6.03125 C 4.117188 -6.03125 4.710938 -5.816406 5.140625 -5.390625 C 5.566406 -4.960938 5.78125 -4.328125 5.78125 -3.484375 C 5.78125 -3.160156 5.773438 -2.941406 5.765625 -2.828125 Z M 4.921875 -3.484375 C 4.898438 -4.117188 4.753906 -4.578125 4.484375 -4.859375 C 4.222656 -5.148438 3.847656 -5.296875 3.359375 -5.296875 C 2.835938 -5.296875 2.425781 -5.148438 2.125 -4.859375 C 1.832031 -4.578125 1.65625 -4.117188 1.59375 -3.484375 Z M 4.921875 -3.484375 "/></g></g></g><g fill="#231438" fill-opacity="1"><g transform="translate(220.232243, 210.696548)"><g><path d="M 1.03125 0 L 1.03125 -5.921875 L 1.859375 -5.921875 L 1.859375 -5 L 1.984375 -4.96875 C 2.253906 -5.644531 2.769531 -5.984375 3.53125 -5.984375 C 3.9375 -5.984375 4.238281 -5.910156 4.4375 -5.765625 L 4.21875 -5.015625 L 4.109375 -5 C 3.890625 -5.101562 3.644531 -5.15625 3.375 -5.15625 C 2.90625 -5.15625 2.539062 -4.976562 2.28125 -4.625 C 2.03125 -4.269531 1.90625 -3.695312 1.90625 -2.90625 L 1.90625 0 Z M 1.03125 0 "/></g></g></g><g fill="#231438" fill-opacity="1"><g transform="translate(224.805165, 210.696548)"><g><path d="M 1.03125 2.40625 L 1.03125 -5.921875 L 1.90625 -5.921875 L 1.90625 -5.03125 L 2.015625 -5.015625 C 2.460938 -5.691406 3.109375 -6.03125 3.953125 -6.03125 C 4.453125 -6.03125 4.882812 -5.914062 5.25 -5.6875 C 5.625 -5.46875 5.910156 -5.128906 6.109375 -4.671875 C 6.316406 -4.210938 6.421875 -3.640625 6.421875 -2.953125 C 6.421875 -2.273438 6.3125 -1.707031 6.09375 -1.25 C 5.882812 -0.789062 5.585938 -0.445312 5.203125 -0.21875 C 4.828125 0 4.390625 0.109375 3.890625 0.109375 C 3.492188 0.109375 3.140625 0.0390625 2.828125 -0.09375 C 2.515625 -0.238281 2.242188 -0.46875 2.015625 -0.78125 L 1.90625 -0.765625 L 1.90625 2.40625 Z M 3.703125 -0.671875 C 4.898438 -0.671875 5.5 -1.429688 5.5 -2.953125 C 5.5 -4.484375 4.898438 -5.25 3.703125 -5.25 C 3.347656 -5.25 3.035156 -5.164062 2.765625 -5 C 2.503906 -4.84375 2.296875 -4.59375 2.140625 -4.25 C 1.984375 -3.914062 1.90625 -3.484375 1.90625 -2.953125 C 1.90625 -2.441406 1.984375 -2.015625 2.140625 -1.671875 C 2.296875 -1.328125 2.503906 -1.070312 2.765625 -0.90625 C 3.035156 -0.75 3.347656 -0.671875 3.703125 -0.671875 Z M 3.703125 -0.671875 "/></g></g></g><g fill="#231438" fill-opacity="1"><g transform="translate(231.868504, 210.696548)"><g><path d="M 1.03125 0 L 1.03125 -5.921875 L 1.859375 -5.921875 L 1.859375 -5 L 1.984375 -4.96875 C 2.253906 -5.644531 2.769531 -5.984375 3.53125 -5.984375 C 3.9375 -5.984375 4.238281 -5.910156 4.4375 -5.765625 L 4.21875 -5.015625 L 4.109375 -5 C 3.890625 -5.101562 3.644531 -5.15625 3.375 -5.15625 C 2.90625 -5.15625 2.539062 -4.976562 2.28125 -4.625 C 2.03125 -4.269531 1.90625 -3.695312 1.90625 -2.90625 L 1.90625 0 Z M 1.03125 0 "/></g></g></g><g fill="#231438" fill-opacity="1"><g transform="translate(236.441425, 210.696548)"><g><path d="M 1.46875 -7.0625 C 1.28125 -7.0625 1.128906 -7.117188 1.015625 -7.234375 C 0.898438 -7.359375 0.84375 -7.507812 0.84375 -7.6875 C 0.84375 -7.863281 0.898438 -8.007812 1.015625 -8.125 C 1.128906 -8.238281 1.28125 -8.296875 1.46875 -8.296875 C 1.65625 -8.296875 1.804688 -8.238281 1.921875 -8.125 C 2.035156 -8.007812 2.09375 -7.863281 2.09375 -7.6875 C 2.09375 -7.507812 2.035156 -7.359375 1.921875 -7.234375 C 1.804688 -7.117188 1.65625 -7.0625 1.46875 -7.0625 Z M 1.03125 0 L 1.03125 -5.921875 L 1.90625 -5.921875 L 1.90625 0 Z M 1.03125 0 "/></g></g></g><g fill="#231438" fill-opacity="1"><g transform="translate(239.377326, 210.696548)"><g><path d="M 2.703125 0.109375 C 2.328125 0.109375 1.976562 0.0625 1.65625 -0.03125 C 1.34375 -0.132812 1.078125 -0.269531 0.859375 -0.4375 C 0.640625 -0.613281 0.488281 -0.804688 0.40625 -1.015625 L 0.921875 -1.5625 L 1.03125 -1.5625 C 1.226562 -1.269531 1.460938 -1.046875 1.734375 -0.890625 C 2.003906 -0.742188 2.328125 -0.671875 2.703125 -0.671875 C 3.140625 -0.671875 3.472656 -0.753906 3.703125 -0.921875 C 3.929688 -1.097656 4.046875 -1.335938 4.046875 -1.640625 C 4.046875 -1.867188 3.972656 -2.054688 3.828125 -2.203125 C 3.691406 -2.359375 3.46875 -2.476562 3.15625 -2.5625 L 2.171875 -2.796875 C 1.628906 -2.929688 1.234375 -3.132812 0.984375 -3.40625 C 0.742188 -3.6875 0.625 -4.035156 0.625 -4.453125 C 0.625 -4.773438 0.707031 -5.054688 0.875 -5.296875 C 1.039062 -5.535156 1.273438 -5.71875 1.578125 -5.84375 C 1.890625 -5.96875 2.257812 -6.03125 2.6875 -6.03125 C 3.226562 -6.03125 3.65625 -5.953125 3.96875 -5.796875 C 4.289062 -5.648438 4.535156 -5.441406 4.703125 -5.171875 L 4.21875 -4.6875 L 4.109375 -4.6875 C 3.921875 -4.90625 3.710938 -5.0625 3.484375 -5.15625 C 3.265625 -5.257812 3 -5.3125 2.6875 -5.3125 C 2.300781 -5.3125 2.003906 -5.238281 1.796875 -5.09375 C 1.585938 -4.957031 1.484375 -4.753906 1.484375 -4.484375 C 1.484375 -4.242188 1.554688 -4.050781 1.703125 -3.90625 C 1.847656 -3.757812 2.101562 -3.644531 2.46875 -3.5625 L 3.453125 -3.3125 C 3.972656 -3.195312 4.347656 -2.992188 4.578125 -2.703125 C 4.804688 -2.421875 4.921875 -2.070312 4.921875 -1.65625 C 4.921875 -1.300781 4.835938 -0.988281 4.671875 -0.71875 C 4.503906 -0.457031 4.253906 -0.253906 3.921875 -0.109375 C 3.585938 0.0351562 3.179688 0.109375 2.703125 0.109375 Z M 2.703125 0.109375 "/></g></g></g><g fill="#231438" fill-opacity="1"><g transform="translate(244.851951, 210.696548)"><g><path d="M 5.640625 -2.765625 L 1.578125 -2.765625 C 1.597656 -2.046875 1.769531 -1.515625 2.09375 -1.171875 C 2.414062 -0.835938 2.851562 -0.671875 3.40625 -0.671875 C 3.832031 -0.671875 4.171875 -0.742188 4.421875 -0.890625 C 4.679688 -1.046875 4.882812 -1.285156 5.03125 -1.609375 L 5.15625 -1.609375 L 5.71875 -1.265625 C 5.550781 -0.835938 5.273438 -0.5 4.890625 -0.25 C 4.515625 -0.0078125 4.019531 0.109375 3.40625 0.109375 C 2.832031 0.109375 2.335938 0 1.921875 -0.21875 C 1.515625 -0.445312 1.203125 -0.789062 0.984375 -1.25 C 0.765625 -1.707031 0.65625 -2.273438 0.65625 -2.953125 C 0.65625 -3.628906 0.769531 -4.195312 1 -4.65625 C 1.238281 -5.125 1.5625 -5.46875 1.96875 -5.6875 C 2.375 -5.914062 2.835938 -6.03125 3.359375 -6.03125 C 4.117188 -6.03125 4.710938 -5.816406 5.140625 -5.390625 C 5.566406 -4.960938 5.78125 -4.328125 5.78125 -3.484375 C 5.78125 -3.160156 5.773438 -2.941406 5.765625 -2.828125 Z M 4.921875 -3.484375 C 4.898438 -4.117188 4.753906 -4.578125 4.484375 -4.859375 C 4.222656 -5.148438 3.847656 -5.296875 3.359375 -5.296875 C 2.835938 -5.296875 2.425781 -5.148438 2.125 -4.859375 C 1.832031 -4.578125 1.65625 -4.117188 1.59375 -3.484375 Z M 4.921875 -3.484375 "/></g></g></g></svg>